<svg xmlns="http://www.w3.org/2000/svg" width="290" height="65" fill="none"><g clip-path="url(#a)"><path fill="#501B8D" d="M40.304 14.39 18.736 36.092v10.41a10.7 10.7 0 0 0 9.538 5.99c1.945 0 3.85-.541 5.504-1.565l21.568-21.704v-10.41a10.7 10.7 0 0 0-9.514-5.99 10.426 10.426 0 0 0-5.528 1.565Z" opacity=".5"/><path fill="#0FABF6" d="M55.248 49.242V18.814a10.7 10.7 0 0 0-9.518-5.99 10.426 10.426 0 0 0-5.508 1.565L18.635 36.093 7.72 47.11A8.677 8.677 0 0 0 7 50.564c0 5.286 4.847 9.585 10.872 9.698h26.054a11.18 11.18 0 0 0 11.322-11.02Z" opacity=".8"/><path fill="#E62C5A" d="M33.794 50.874 55.361 29.17l10.92-10.989A8.605 8.605 0 0 0 67 14.707c0-5.29-4.851-9.592-10.88-9.706H30.081a11.186 11.186 0 0 0-11.345 11.04V46.47a10.704 10.704 0 0 0 9.538 5.99c1.952 0 3.865-.55 5.52-1.585Z" opacity=".8"/></g><path fill="#fff" d="M86.94 50.468c-2.433 0-4.623-.417-6.57-1.25s-3.487-2.033-4.62-3.6c-1.133-1.56-1.717-3.407-1.75-5.54h7.49c.1 1.433.61 2.567 1.53 3.4.913.827 2.17 1.24 3.77 1.24 1.633 0 2.913-.39 3.84-1.17.933-.78 1.4-1.803 1.4-3.07 0-1.033-.317-1.883-.95-2.55-.633-.667-1.423-1.19-2.37-1.57-.947-.387-2.253-.813-3.92-1.28-2.267-.667-4.107-1.323-5.52-1.97-1.413-.653-2.63-1.637-3.65-2.95-1.013-1.313-1.52-3.07-1.52-5.27 0-2.067.517-3.863 1.55-5.39 1.033-1.533 2.48-2.71 4.34-3.53 1.867-.813 4-1.22 6.4-1.22 3.593 0 6.517.873 8.77 2.62 2.247 1.753 3.487 4.193 3.72 7.32h-7.7c-.067-1.2-.573-2.19-1.52-2.97-.947-.787-2.203-1.18-3.77-1.18-1.367 0-2.457.35-3.27 1.05-.82.7-1.23 1.717-1.23 3.05 0 .933.31 1.707.93 2.32.613.62 1.377 1.12 2.29 1.5.92.387 2.213.83 3.88 1.33 2.26.667 4.107 1.333 5.54 2 1.433.66 2.667 1.657 3.7 2.99 1.033 1.333 1.55 3.083 1.55 5.25a9.823 9.823 0 0 1-1.45 5.19c-.967 1.6-2.383 2.877-4.25 3.83-1.867.947-4.08 1.42-6.64 1.42Zm32.72-22.28h-6.2v13.39c0 .933.227 1.607.68 2.02.447.413 1.203.62 2.27.62h3.25v5.9h-4.4c-5.893 0-8.84-2.863-8.84-8.59v-13.34h-3.3v-5.75h3.3v-6.84h7.04v6.84h6.2v5.75Zm12.04-1.45c.9-1.467 2.073-2.617 3.52-3.45 1.453-.833 3.11-1.25 4.97-1.25v7.35h-1.85c-2.193 0-3.85.517-4.97 1.55-1.113 1.027-1.67 2.823-1.67 5.39v13.79h-6.99v-27.68h6.99v4.3Zm38.92 8.94c0 1-.067 1.9-.2 2.7h-20.24c.167 2 .867 3.567 2.1 4.7 1.233 1.127 2.75 1.69 4.55 1.69 2.6 0 4.447-1.113 5.54-3.34h7.55c-.8 2.66-2.333 4.85-4.6 6.57-2.267 1.713-5.047 2.57-8.34 2.57-2.667 0-5.057-.59-7.17-1.77-2.113-1.187-3.763-2.86-4.95-5.02-1.18-2.167-1.77-4.667-1.77-7.5 0-2.86.583-5.373 1.75-7.54s2.797-3.833 4.89-5c2.1-1.167 4.517-1.75 7.25-1.75 2.633 0 4.99.567 7.07 1.7a11.95 11.95 0 0 1 4.84 4.82c1.153 2.087 1.73 4.477 1.73 7.17Zm-20.39-2h13.14c-.033-1.793-.68-3.233-1.94-4.32-1.267-1.08-2.817-1.62-4.65-1.62-1.733 0-3.19.523-4.37 1.57-1.187 1.053-1.913 2.51-2.18 4.37Zm23.68 2.5c0-2.793.56-5.273 1.68-7.44 1.113-2.167 2.627-3.833 4.54-5 1.92-1.167 4.06-1.75 6.42-1.75 2.067 0 3.873.417 5.42 1.25 1.553.833 2.797 1.883 3.73 3.15v-3.95h7.04v27.68h-7.04v-4.05c-.9 1.3-2.143 2.377-3.73 3.23-1.58.847-3.403 1.27-5.47 1.27-2.327 0-4.45-.6-6.37-1.8-1.913-1.2-3.427-2.89-4.54-5.07-1.12-2.18-1.68-4.687-1.68-7.52Zm21.79.1c0-1.7-.333-3.157-1-4.37s-1.567-2.147-2.7-2.8a7.244 7.244 0 0 0-3.65-.97c-1.3 0-2.497.317-3.59.95-1.1.633-1.993 1.557-2.68 2.77-.68 1.213-1.02 2.653-1.02 4.32 0 1.667.34 3.123 1.02 4.37.687 1.253 1.587 2.213 2.7 2.88 1.113.66 2.303.99 3.57.99 1.3 0 2.517-.323 3.65-.97s2.033-1.58 2.7-2.8c.667-1.213 1-2.67 1-4.37Zm48.26-14.24c3.393 0 6.13 1.043 8.21 3.13 2.087 2.08 3.13 4.983 3.13 8.71v16.24h-7v-15.29c0-2.16-.55-3.817-1.65-4.97-1.093-1.147-2.59-1.72-4.49-1.72-1.9 0-3.407.573-4.52 1.72-1.12 1.153-1.68 2.81-1.68 4.97v15.29h-6.99v-15.29c0-2.16-.55-3.817-1.65-4.97-1.1-1.147-2.6-1.72-4.5-1.72-1.927 0-3.45.573-4.57 1.72-1.113 1.153-1.67 2.81-1.67 4.97v15.29h-7v-27.68h7v3.35c.9-1.167 2.057-2.083 3.47-2.75 1.413-.667 2.97-1 4.67-1 2.167 0 4.1.46 5.8 1.38a9.543 9.543 0 0 1 3.94 3.92c.9-1.6 2.21-2.883 3.93-3.85a11.146 11.146 0 0 1 5.57-1.45Zm28.57 28.53c-2.26 0-4.29-.407-6.09-1.22-1.8-.82-3.223-1.93-4.27-3.33-1.053-1.393-1.63-2.94-1.73-4.64h7.05c.133 1.067.657 1.95 1.57 2.65.913.693 2.053 1.04 3.42 1.04 1.333 0 2.373-.267 3.12-.8.753-.527 1.13-1.207 1.13-2.04 0-.9-.457-1.577-1.37-2.03-.92-.447-2.38-.937-4.38-1.47-2.06-.5-3.75-1.017-5.07-1.55a8.782 8.782 0 0 1-3.39-2.45c-.953-1.1-1.43-2.58-1.43-4.44a7.16 7.16 0 0 1 1.33-4.2c.88-1.267 2.143-2.267 3.79-3 1.653-.733 3.593-1.1 5.82-1.1 3.3 0 5.933.827 7.9 2.48 1.96 1.647 3.04 3.87 3.24 6.67h-6.69c-.1-1.1-.557-1.977-1.37-2.63-.82-.647-1.913-.97-3.28-.97-1.267 0-2.24.233-2.92.7-.68.467-1.02 1.117-1.02 1.95 0 .933.467 1.64 1.4 2.12.927.48 2.373.97 4.34 1.47 2 .5 3.65 1.017 4.95 1.55 1.3.533 2.423 1.36 3.37 2.48.947 1.113 1.437 2.587 1.47 4.42 0 1.593-.44 3.023-1.32 4.29-.88 1.267-2.147 2.26-3.8 2.98-1.647.713-3.57 1.07-5.77 1.07Z"/><path fill="#fff" d="M86.94 50.72c-2.433 0-4.623-.417-6.57-1.25s-3.487-2.033-4.62-3.6c-1.133-1.56-1.717-3.407-1.75-5.54h7.49c.1 1.433.61 2.567 1.53 3.4.913.827 2.17 1.24 3.77 1.24 1.633 0 2.913-.39 3.84-1.17.933-.78 1.4-1.803 1.4-3.07 0-1.033-.317-1.883-.95-2.55-.633-.667-1.423-1.19-2.37-1.57-.947-.387-2.253-.813-3.92-1.28-2.267-.667-4.107-1.323-5.52-1.97-1.413-.653-2.63-1.637-3.65-2.95-1.013-1.313-1.52-3.07-1.52-5.27 0-2.067.517-3.863 1.55-5.39 1.033-1.533 2.48-2.71 4.34-3.53 1.867-.813 4-1.22 6.4-1.22 3.593 0 6.517.873 8.77 2.62 2.247 1.753 3.487 4.193 3.72 7.32h-7.7c-.067-1.2-.573-2.19-1.52-2.97-.947-.787-2.203-1.18-3.77-1.18-1.367 0-2.457.35-3.27 1.05-.82.7-1.23 1.717-1.23 3.05 0 .933.31 1.707.93 2.32.613.62 1.377 1.12 2.29 1.5.92.387 2.213.83 3.88 1.33 2.26.667 4.107 1.333 5.54 2 1.433.66 2.667 1.657 3.7 2.99 1.033 1.333 1.55 3.083 1.55 5.25a9.823 9.823 0 0 1-1.45 5.19c-.967 1.6-2.383 2.877-4.25 3.83-1.867.947-4.08 1.42-6.64 1.42Zm32.72-22.28h-6.2v13.39c0 .933.227 1.607.68 2.02.447.413 1.203.62 2.27.62h3.25v5.9h-4.4c-5.893 0-8.84-2.863-8.84-8.59V28.44h-3.3v-5.75h3.3v-6.84h7.04v6.84h6.2v5.75Zm12.04-1.45c.9-1.467 2.073-2.617 3.52-3.45 1.453-.833 3.11-1.25 4.97-1.25v7.35h-1.85c-2.193 0-3.85.517-4.97 1.55-1.113 1.027-1.67 2.823-1.67 5.39v13.79h-6.99V22.69h6.99v4.3Zm38.92 8.94c0 1-.067 1.9-.2 2.7h-20.24c.167 2 .867 3.567 2.1 4.7 1.233 1.127 2.75 1.69 4.55 1.69 2.6 0 4.447-1.113 5.54-3.34h7.55c-.8 2.66-2.333 4.85-4.6 6.57-2.267 1.713-5.047 2.57-8.34 2.57-2.667 0-5.057-.59-7.17-1.77-2.113-1.187-3.763-2.86-4.95-5.02-1.18-2.167-1.77-4.667-1.77-7.5 0-2.86.583-5.373 1.75-7.54s2.797-3.833 4.89-5c2.1-1.167 4.517-1.75 7.25-1.75 2.633 0 4.99.567 7.07 1.7a11.95 11.95 0 0 1 4.84 4.82c1.153 2.087 1.73 4.477 1.73 7.17Zm-20.39-2h13.14c-.033-1.793-.68-3.233-1.94-4.32-1.267-1.08-2.817-1.62-4.65-1.62-1.733 0-3.19.523-4.37 1.57-1.187 1.053-1.913 2.51-2.18 4.37Zm23.68 2.5c0-2.793.56-5.273 1.68-7.44 1.113-2.167 2.627-3.833 4.54-5 1.92-1.167 4.06-1.75 6.42-1.75 2.067 0 3.873.417 5.42 1.25 1.553.833 2.797 1.883 3.73 3.15v-3.95h7.04v27.68h-7.04v-4.05c-.9 1.3-2.143 2.377-3.73 3.23-1.58.847-3.403 1.27-5.47 1.27-2.327 0-4.45-.6-6.37-1.8-1.913-1.2-3.427-2.89-4.54-5.07-1.12-2.18-1.68-4.687-1.68-7.52Zm21.79.1c0-1.7-.333-3.157-1-4.37s-1.567-2.147-2.7-2.8a7.244 7.244 0 0 0-3.65-.97c-1.3 0-2.497.317-3.59.95-1.1.633-1.993 1.557-2.68 2.77-.68 1.213-1.02 2.653-1.02 4.32 0 1.667.34 3.123 1.02 4.37.687 1.253 1.587 2.213 2.7 2.88 1.113.66 2.303.99 3.57.99 1.3 0 2.517-.323 3.65-.97s2.033-1.58 2.7-2.8c.667-1.213 1-2.67 1-4.37Zm48.26-14.24c3.393 0 6.13 1.043 8.21 3.13 2.087 2.08 3.13 4.983 3.13 8.71v16.24h-7V35.08c0-2.16-.55-3.817-1.65-4.97-1.093-1.147-2.59-1.72-4.49-1.72-1.9 0-3.407.573-4.52 1.72-1.12 1.153-1.68 2.81-1.68 4.97v15.29h-6.99V35.08c0-2.16-.55-3.817-1.65-4.97-1.1-1.147-2.6-1.72-4.5-1.72-1.927 0-3.45.573-4.57 1.72-1.113 1.153-1.67 2.81-1.67 4.97v15.29h-7V22.69h7v3.35c.9-1.167 2.057-2.083 3.47-2.75 1.413-.667 2.97-1 4.67-1 2.167 0 4.1.46 5.8 1.38a9.543 9.543 0 0 1 3.94 3.92c.9-1.6 2.21-2.883 3.93-3.85a11.146 11.146 0 0 1 5.57-1.45Zm28.57 28.53c-2.26 0-4.29-.407-6.09-1.22-1.8-.82-3.223-1.93-4.27-3.33-1.053-1.393-1.63-2.94-1.73-4.64h7.05c.133 1.067.657 1.95 1.57 2.65.913.693 2.053 1.04 3.42 1.04 1.333 0 2.373-.267 3.12-.8.753-.527 1.13-1.207 1.13-2.04 0-.9-.457-1.577-1.37-2.03-.92-.447-2.38-.937-4.38-1.47-2.06-.5-3.75-1.017-5.07-1.55a8.782 8.782 0 0 1-3.39-2.45c-.953-1.1-1.43-2.58-1.43-4.44a7.16 7.16 0 0 1 1.33-4.2c.88-1.267 2.143-2.267 3.79-3 1.653-.733 3.593-1.1 5.82-1.1 3.3 0 5.933.827 7.9 2.48 1.96 1.647 3.04 3.87 3.24 6.67h-6.69c-.1-1.1-.557-1.977-1.37-2.63-.82-.647-1.913-.97-3.28-.97-1.267 0-2.24.233-2.92.7-.68.467-1.02 1.117-1.02 1.95 0 .933.467 1.64 1.4 2.12.927.48 2.373.97 4.34 1.47 2 .5 3.65 1.017 4.95 1.55 1.3.533 2.423 1.36 3.37 2.48.947 1.113 1.437 2.587 1.47 4.42 0 1.593-.44 3.023-1.32 4.29-.88 1.267-2.147 2.26-3.8 2.98-1.647.713-3.57 1.07-5.77 1.07Z"/><defs><clipPath id="a"><path fill="#fff" d="M7 5h60v55.316H7z"/></clipPath></defs></svg>