<svg xmlns="http://www.w3.org/2000/svg" width="290" height="65" color-interpolation-filters="sRGB" version="1.0"><g fill="#333" class="icon-text-wrapper icon-svg-group iconsvg"><g class="iconsvg-imagesvg"><path fill="none" d="M7 5h60v55.316H7V5z" class="image-rect"/><svg width="60" height="55.316" x="7" y="5" class="image-svg-svg primary"><svg xmlns="http://www.w3.org/2000/svg" viewBox="0 -0.003 153.13 141.175"><path fill="#e62c5a" d="m68.25 117.26 55.13-55.48 27.91-28.09a22 22 0 0 0 1.84-8.88c0-13.52-12.4-24.52-27.81-24.81H58.76a28.59 28.59 0 0 0-29 28.22V106a27.36 27.36 0 0 0 24.38 15.31 26.61 26.61 0 0 0 14.11-4.05z" opacity=".8"/><path fill="#0fabf6" d="M123.33 113V35.22A27.35 27.35 0 0 0 99 19.91a26.65 26.65 0 0 0-14.08 4L29.74 79.39l-27.9 28.16A22.18 22.18 0 0 0 0 116.38c0 13.51 12.39 24.5 27.79 24.79h66.6A28.58 28.58 0 0 0 123.33 113z" opacity=".8"/><path fill="#501b8d" d="M84.87 23.91 29.74 79.39V106a27.35 27.35 0 0 0 24.38 15.31 26.72 26.72 0 0 0 14.07-4l55.13-55.48V35.22A27.35 27.35 0 0 0 99 19.91a26.65 26.65 0 0 0-14.13 4z" opacity=".5"/></svg></svg></g><path d="M86.94 50.468q-3.65 0-6.57-1.25-2.92-1.25-4.62-3.6-1.7-2.34-1.75-5.54h7.49q.15 2.15 1.53 3.4 1.37 1.24 3.77 1.24 2.45 0 3.84-1.17 1.4-1.17 1.4-3.07 0-1.55-.95-2.55-.95-1-2.37-1.57-1.42-.58-3.92-1.28-3.4-1-5.52-1.97-2.12-.98-3.65-2.95-1.52-1.97-1.52-5.27 0-3.1 1.55-5.39 1.55-2.3 4.34-3.53 2.8-1.22 6.4-1.22 5.39 0 8.77 2.62 3.37 2.63 3.72 7.32h-7.7q-.1-1.8-1.52-2.97-1.42-1.18-3.77-1.18-2.05 0-3.27 1.05-1.23 1.05-1.23 3.05 0 1.4.93 2.32.92.93 2.29 1.5 1.38.58 3.88 1.33 3.39 1 5.54 2 2.15.99 3.7 2.99 1.55 2 1.55 5.25 0 2.8-1.45 5.19-1.45 2.4-4.25 3.83-2.8 1.42-6.64 1.42zm32.72-22.28h-6.2v13.39q0 1.4.68 2.02.67.62 2.27.62h3.25v5.9h-4.4q-8.84 0-8.84-8.59v-13.34h-3.3v-5.75h3.3v-6.84h7.04v6.84h6.2v5.75zm12.04-1.45q1.35-2.2 3.52-3.45 2.18-1.25 4.97-1.25v7.35h-1.85q-3.29 0-4.97 1.55-1.67 1.54-1.67 5.39v13.79h-6.99v-27.68h6.99v4.3zm38.92 8.94q0 1.5-.2 2.7h-20.24q.25 3 2.1 4.7 1.85 1.69 4.55 1.69 3.9 0 5.54-3.34h7.55q-1.2 3.99-4.6 6.57-3.4 2.57-8.34 2.57-4 0-7.17-1.77-3.17-1.78-4.95-5.02-1.77-3.25-1.77-7.5 0-4.29 1.75-7.54t4.89-5q3.15-1.75 7.25-1.75 3.95 0 7.07 1.7t4.84 4.82q1.73 3.13 1.73 7.17zm-20.39-2h13.14q-.05-2.69-1.94-4.32-1.9-1.62-4.65-1.62-2.6 0-4.37 1.57-1.78 1.58-2.18 4.37zm23.68 2.5q0-4.19 1.68-7.44 1.67-3.25 4.54-5 2.88-1.75 6.42-1.75 3.1 0 5.42 1.25 2.33 1.25 3.73 3.15v-3.95h7.04v27.68h-7.04v-4.05q-1.35 1.95-3.73 3.23-2.37 1.27-5.47 1.27-3.49 0-6.37-1.8-2.87-1.8-4.54-5.07-1.68-3.27-1.68-7.52zm21.79.1q0-2.55-1-4.37-1-1.82-2.7-2.8-1.7-.97-3.65-.97t-3.59.95q-1.65.95-2.68 2.77-1.02 1.82-1.02 4.32t1.02 4.37q1.03 1.88 2.7 2.88 1.67.99 3.57.99 1.95 0 3.65-.97t2.7-2.8q1-1.82 1-4.37zm48.26-14.24q5.09 0 8.21 3.13 3.13 3.12 3.13 8.71v16.24h-7v-15.29q0-3.24-1.65-4.97-1.64-1.72-4.49-1.72-2.85 0-4.52 1.72-1.68 1.73-1.68 4.97v15.29h-6.99v-15.29q0-3.24-1.65-4.97-1.65-1.72-4.5-1.72-2.89 0-4.57 1.72-1.67 1.73-1.67 4.97v15.29h-7v-27.68h7v3.35q1.35-1.75 3.47-2.75t4.67-1q3.25 0 5.8 1.38 2.55 1.37 3.94 3.92 1.35-2.4 3.93-3.85 2.57-1.45 5.57-1.45zm28.57 28.53q-3.39 0-6.09-1.22-2.7-1.23-4.27-3.33-1.58-2.09-1.73-4.64h7.05q.2 1.6 1.57 2.65 1.37 1.04 3.42 1.04 2 0 3.12-.8 1.13-.79 1.13-2.04 0-1.35-1.37-2.03-1.38-.67-4.38-1.47-3.09-.75-5.07-1.55-1.97-.8-3.39-2.45-1.43-1.65-1.43-4.44 0-2.3 1.33-4.2 1.32-1.9 3.79-3 2.48-1.1 5.82-1.1 4.95 0 7.9 2.48 2.94 2.47 3.24 6.67h-6.69q-.15-1.65-1.37-2.63-1.23-.97-3.28-.97-1.9 0-2.92.7t-1.02 1.95q0 1.4 1.4 2.12 1.39.72 4.34 1.47 3 .75 4.95 1.55 1.95.8 3.37 2.48 1.42 1.67 1.47 4.42 0 2.39-1.32 4.29t-3.8 2.98q-2.47 1.07-5.77 1.07z" class="tp-name iconsvg-namesvg" data-gra="path-name"/></g></svg>